HIERARCHY
ROOT Hips
{
	OFFSET -14.64140 90.27770 -84.91600
	CHANNELS 6 Xposition Yposition Zposition Zrotation Xrotation Yrotation
	JOINT Spine
	{
		OFFSET 0.00000 13.20850 -1.60436
		CHANNELS 3 Zrotation Xrotation Yrotation
		JOINT Spine1
		{
			OFFSET 0.00000 8.61716 0.00000
			CHANNELS 3 Zrotation Xrotation Yrotation
			JOINT Spine2
			{
				OFFSET 0.00000 8.61717 0.00000
				CHANNELS 3 Zrotation Xrotation Yrotation
				JOINT Spine3
				{
					OFFSET 0.00000 8.61717 0.00000
					CHANNELS 3 Zrotation Xrotation Yrotation
					JOINT Neck
					{
						OFFSET 0.00000 11.07920 1.10792
						CHANNELS 3 Zrotation Xrotation Yrotation
						JOINT Neck1
						{
							OFFSET 0.00000 7.08032 0.00000
							CHANNELS 3 Zrotation Xrotation Yrotation
							JOINT Head
							{
								OFFSET 0.00000 7.08031 0.00000
								CHANNELS 3 Zrotation Xrotation Yrotation
								End site
								{
									OFFSET 0.00000 0.00000 0.00000
								}
							}
						}
					}
					JOINT RightShoulder
					{
						OFFSET -0.01000 7.91373 5.19711
						CHANNELS 3 Zrotation Xrotation Yrotation
						JOINT RightArm
						{
							OFFSET -18.41580 0.00000 0.00000
							CHANNELS 3 Zrotation Xrotation Yrotation
							JOINT RightForeArm
							{
								OFFSET -29.11090 0.00000 0.00000
								CHANNELS 3 Zrotation Xrotation Yrotation
								JOINT RightHand
								{
									OFFSET -24.65040 0.00000 0.00000
									CHANNELS 3 Zrotation Xrotation Yrotation
									JOINT RightHandThumb1
									{
										OFFSET -5.35114 -0.85590 3.97906
										CHANNELS 3 Zrotation Xrotation Yrotation
										JOINT RightHandThumb2
										{
											OFFSET -4.52789 0.00000 0.00000
											CHANNELS 3 Zrotation Xrotation Yrotation
											JOINT RightHandThumb3
											{
												OFFSET -2.46976 0.00000 0.00000
												CHANNELS 3 Zrotation Xrotation Yrotation
												End site
												{
													OFFSET 0.00000 0.00000 0.00000
												}
											}
										}
									}
									JOINT RightHandIndex1
									{
										OFFSET -14.26970 0.00000 2.88139
										CHANNELS 3 Zrotation Xrotation Yrotation
										JOINT RightHandIndex2
										{
											OFFSET -5.48836 0.00000 0.00000
											CHANNELS 3 Zrotation Xrotation Yrotation
											JOINT RightHandIndex3
											{
												OFFSET -3.01859 0.00000 0.00000
												CHANNELS 3 Zrotation Xrotation Yrotation
												End site
												{
													OFFSET 0.00000 0.00000 0.00000
												}
											}
										}
									}
									JOINT RightHandMiddle1
									{
										OFFSET -14.26970 0.00000 -0.09147
										CHANNELS 3 Zrotation Xrotation Yrotation
										JOINT RightHandMiddle2
										{
											OFFSET -6.17441 0.00000 0.00000
											CHANNELS 3 Zrotation Xrotation Yrotation
											JOINT RightHandMiddle3
											{
												OFFSET -3.56743 0.00000 0.00000
												CHANNELS 3 Zrotation Xrotation Yrotation
												End site
												{
													OFFSET 0.00000 0.00000 0.00000
												}
											}
										}
									}
									JOINT RightHandRing1
									{
										OFFSET -12.69180 0.00000 -3.06433
										CHANNELS 3 Zrotation Xrotation Yrotation
										JOINT RightHandRing2
										{
											OFFSET -5.62556 0.00000 0.00000
											CHANNELS 3 Zrotation Xrotation Yrotation
											JOINT RightHandRing3
											{
												OFFSET -3.56744 0.00000 0.00000
												CHANNELS 3 Zrotation Xrotation Yrotation
												End site
												{
													OFFSET 0.00000 0.00000 0.00000
												}
											}
										}
									}
									JOINT RightHandPinky1
									{
										OFFSET -11.11390 0.00000 -6.03719
										CHANNELS 3 Zrotation Xrotation Yrotation
										JOINT RightHandPinky2
										{
											OFFSET -4.52789 0.00000 0.00000
											CHANNELS 3 Zrotation Xrotation Yrotation
											JOINT RightHandPinky3
											{
												OFFSET -2.46976 0.00000 0.00000
												CHANNELS 3 Zrotation Xrotation Yrotation
												End site
												{
													OFFSET 0.00000 0.00000 0.00000
												}
											}
										}
									}
								}
							}
						}
					}
					JOINT LeftShoulder
					{
						OFFSET 0.01000 7.91373 5.19711
						CHANNELS 3 Zrotation Xrotation Yrotation
						JOINT LeftArm
						{
							OFFSET 18.41580 0.00000 0.00000
							CHANNELS 3 Zrotation Xrotation Yrotation
							JOINT LeftForeArm
							{
								OFFSET 29.11090 0.00000 0.00000
								CHANNELS 3 Zrotation Xrotation Yrotation
								JOINT LeftHand
								{
									OFFSET 24.65040 0.00000 0.00000
									CHANNELS 3 Zrotation Xrotation Yrotation
									JOINT LeftHandThumb1
									{
										OFFSET 5.35114 -0.85590 3.97906
										CHANNELS 3 Zrotation Xrotation Yrotation
										JOINT LeftHandThumb2
										{
											OFFSET 4.52789 0.00000 0.00000
											CHANNELS 3 Zrotation Xrotation Yrotation
											JOINT LeftHandThumb3
											{
												OFFSET 2.46977 0.00000 0.00000
												CHANNELS 3 Zrotation Xrotation Yrotation
												End site
												{
													OFFSET 0.00000 0.00000 0.00000
												}
											}
										}
									}
									JOINT LeftHandIndex1
									{
										OFFSET 14.26970 0.00000 2.88139
										CHANNELS 3 Zrotation Xrotation Yrotation
										JOINT LeftHandIndex2
										{
											OFFSET 5.48836 0.00000 0.00000
											CHANNELS 3 Zrotation Xrotation Yrotation
											JOINT LeftHandIndex3
											{
												OFFSET 3.01859 0.00000 0.00000
												CHANNELS 3 Zrotation Xrotation Yrotation
												End site
												{
													OFFSET 0.00000 0.00000 0.00000
												}
											}
										}
									}
									JOINT LeftHandMiddle1
									{
										OFFSET 14.26970 0.00000 -0.09147
										CHANNELS 3 Zrotation Xrotation Yrotation
										JOINT LeftHandMiddle2
										{
											OFFSET 6.17440 0.00000 0.00000
											CHANNELS 3 Zrotation Xrotation Yrotation
											JOINT LeftHandMiddle3
											{
												OFFSET 3.56744 0.00000 0.00000
												CHANNELS 3 Zrotation Xrotation Yrotation
												End site
												{
													OFFSET 0.00000 0.00000 0.00000
												}
											}
										}
									}
									JOINT LeftHandRing1
									{
										OFFSET 12.69180 0.00000 -3.06433
										CHANNELS 3 Zrotation Xrotation Yrotation
										JOINT LeftHandRing2
										{
											OFFSET 5.62556 0.00000 0.00000
											CHANNELS 3 Zrotation Xrotation Yrotation
											JOINT LeftHandRing3
											{
												OFFSET 3.56744 0.00000 0.00000
												CHANNELS 3 Zrotation Xrotation Yrotation
												End site
												{
													OFFSET 0.00000 0.00000 0.00000
												}
											}
										}
									}
									JOINT LeftHandPinky1
									{
										OFFSET 11.11390 0.00000 -6.03719
										CHANNELS 3 Zrotation Xrotation Yrotation
										JOINT LeftHandPinky2
										{
											OFFSET 4.52789 0.00000 0.00000
											CHANNELS 3 Zrotation Xrotation Yrotation
											JOINT LeftHandPinky3
											{
												OFFSET 2.46976 0.00000 0.00000
												CHANNELS 3 Zrotation Xrotation Yrotation
												End site
												{
													OFFSET 0.00000 0.00000 0.00000
												}
											}
										}
									}
								}
							}
						}
					}
					JOINT pCube4
					{
						OFFSET 0.00000 10.91090 1.10792
						CHANNELS 3 Zrotation Xrotation Yrotation
						End site
						{
							OFFSET 0.00000 0.00000 0.00000
						}
					}
				}
			}
		}
	}
	JOINT RightUpLeg
	{
		OFFSET -9.98441 0.00000 0.00000
		CHANNELS 3 Zrotation Xrotation Yrotation
		JOINT RightLeg
		{
			OFFSET 0.00000 -42.11790 0.00000
			CHANNELS 3 Zrotation Xrotation Yrotation
			JOINT RightFoot
			{
				OFFSET 0.00000 -45.00020 -0.00001
				CHANNELS 3 Zrotation Xrotation Yrotation
				JOINT RightForeFoot
				{
					OFFSET 0.00000 -3.74820 0.00000
					CHANNELS 3 Zrotation Xrotation Yrotation
					JOINT RightToeBase
					{
						OFFSET 0.00000 0.06325 14.43120
						CHANNELS 3 Zrotation Xrotation Yrotation
						End site
						{
							OFFSET 0.00000 0.00000 0.00000
						}
					}
				}
			}
		}
	}
	JOINT LeftUpLeg
	{
		OFFSET 9.98441 0.00000 0.00000
		CHANNELS 3 Zrotation Xrotation Yrotation
		JOINT LeftLeg
		{
			OFFSET 0.00000 -42.11800 0.00000
			CHANNELS 3 Zrotation Xrotation Yrotation
			JOINT LeftFoot
			{
				OFFSET 0.00000 -45.00070 0.00000
				CHANNELS 3 Zrotation Xrotation Yrotation
				JOINT LeftForeFoot
				{
					OFFSET 0.00000 -3.74824 0.00000
					CHANNELS 3 Zrotation Xrotation Yrotation
					JOINT LeftToeBase
					{
						OFFSET 0.00000 0.06325 14.43110
						CHANNELS 3 Zrotation Xrotation Yrotation
						End site
						{
							OFFSET 0.00000 0.00000 0.00000
						}
					}
				}
			}
		}
	}
}
MOTION
Frames: 4
Frame Time: 0.050000
0.02943071772299989 0.046398237906854885 0.04723355786203593 -0.049338548702978026 -0.021030658954840027 0.01568846693871546 -1.2819079181044142 1.3113573768255682 -1.0076517226056851 -0.4567105531449586 3.9478993029658622 0.3211622362296564 -0.8260954489179348 -1.9213315448774062 1.9420497691509138 -1.3876680235464063 -0.864655792618547 -0.262205041660294 -0.19682950775276667 14.938215153588141 0.9806371996961882 0.5229747758262775 -0.21486539721481412 0.7565219590383563 0.4756105825497576 -15.241280881807127 0.03599454475780156 -4.602628308402711 1.7779364800204847 -13.722770997386464 69.02119114303603 -1.3382623601031878 47.309755106539505 9.396971442232653 6.046986575160944 109.77667159911519 18.980374111665867 -0.5935335771460426 -1.0109524331606636 4.503242586074639 -0.1390897027803299 -1.6366243253097925 -0.0011677550626791676 0.02715881612565778 -56.207822805829956 -0.04429987019870813 0.03624059612953411 -56.24927006228555 -38.755533756351326 0.01883765935514862 -0.010727590843386045 0.03743411181603036 -0.03199324590087048 -0.04624674825854926 -0.0015423170539885958 -0.04560424573384155 -0.01794399916866311 -36.70199401790485 0.015828411092751665 0.0028823707121232588 0.03073946523222357 -0.019019961421541144 -0.04981273782286774 -0.037120841813087946 0.021980983473079224 0.007258829283462744 -19.795622531631487 -0.019361572741059405 0.04333085023130421 -0.011716216178324086 -0.01948923468761216 0.006156496399772317 0.025927124555205606 -0.028093453735075536 0.01556198778590149 24.06739480797695 0.037212617676686204 0.017598647730863993 28.849531279305577 -0.015182403974514105 0.01456498718482409 28.91143013922584 -0.013818043981855122 -0.013162236120117412 5.3659288791323005 1.3355811289706851 13.488324406661723 -70.73378255573338 17.056172095786124 -25.259207916245593 0.47214798093947546 -3.1669953263580757 -97.98178069187152 -18.703362493529863 8.81282727455431 -7.979163941628595 -0.48155257673542334 0.08513120055074955 -8.108516722893993 0.040128236777984425 -0.011989055562001966 44.518946852550705 0.019626992193844926 -0.009177232757856 44.602840480747886 12.500052235671637 0.002837895784050562 0.034556965711773364 0.04845981687315358 -0.019687001298184334 -0.010212342970674937 0.006095144789777197 -0.04903999491830566 0.03129627130558237 11.05596588268723 0.035690721508010746 0.02283550140436521 0.012941352218035315 -0.02981928056325804 0.025116770944639537 0.013639966332191812 -0.027465600913332645 -0.025783881630437745 4.78929761863386 -0.003024608841595863 -0.007092898312979547 -0.008857889062309781 -0.002561231392266113 -0.0324605475344966 0.022279083207781422 -0.03234008898709184 -0.02512836125251723 -5.58427415775823 -0.025011640011664088 -0.04925843751856544 -6.693471573024975 0.012345550626880057 0.04869791161156395 -6.743829465552066 0.033607619065080765 -0.008379276894349655 0.005381438316888066 0.018953190182325323 -0.013860038044519582 8.063603271641107 3.5021860582612088 -19.188863702832236 -0.009113636957293492 10.385151652179443 0.06394570993381389 -5.608859090577245 -15.694623543966971 3.2022354458888573 0.04084056203542397 -0.006941250967372345 -0.019674200085301345 0.0027855868034515545 4.668725398983707 -0.014702608991814322 12.435583011572694 -8.241670125059516 6.849877771103549 -0.011298493902174448 46.3376884215935 0.03776162680966242 -4.320262919179813 -14.777018437118096 -3.813776449888196 0.00641732213798446 -0.008250978130065886 0.003361902375570534 0.0015290297362609148 -10.7857333769031 0.030762804337570157 
0.014783714616180544 -0.027330662217205922 0.016800608926655868 -0.02356435012271378 0.044031243693336865 -0.036759909470893436 -1.4362659148351236 1.3096546836370193 -1.0107725148912623 -0.42577031000914006 3.998340248006148 0.3476618585276059 -0.7871605879830859 -1.8787034333589097 1.7996519182527855 -1.3766740810308955 -0.9085786025168604 -0.2794203962380308 -0.23284396793183126 15.153801539378115 1.1825888794986499 0.5539995725131805 -0.24051152776497806 1.2172466851192492 0.4427356003603105 -15.378351370234345 0.0542130411033328 -4.501923334132373 1.734421812213133 -13.695198320893937 69.54914829370297 -0.40167452930569514 47.12930413742076 8.559728182206571 5.6816774226491775 111.08123991498978 18.876863842588474 -0.5412033672917537 -0.9683043674607855 4.513082251266226 -0.08973404686638309 -1.567906697331072 -0.03853294300098607 0.0010188246326979862 -56.22426614320276 -0.04642962333608538 -0.0013776534329368352 -56.25267626990954 -38.774593608430244 0.028877917530645766 -0.002032566559182401 0.008186443291305322 -0.003307959755598795 0.022936876384917825 0.031803995722785 0.00985672662386655 -0.009674192722381625 -36.73090755215291 0.0014293652747712465 0.010306150353243036 0.005563018495264562 0.008441129114052402 0.024362246221221517 0.007649892893252084 0.027058896397451283 -0.022871821805260054 -19.777895730393542 -0.02317182989146953 0.0441976220144902 0.033084519532357255 0.007850176780853922 -0.031150384873613626 -0.0172999126763211 -0.037607492627284536 0.012052244716912085 24.081339283617933 -0.010795207648932931 -0.031568892427172764 28.845853400561904 0.040548293546108526 -0.03110932343713197 28.83015874113052 0.007987812369930547 -0.016605065495890338 5.6755156015587955 1.4029595878576624 13.442584478954247 -70.4598547444517 17.746052545362595 -27.044259764302016 2.94164755594168 -4.238638046442765 -101.13035938524872 -18.178530015120103 8.915843653884425 -8.116052511830514 -0.4463576873041638 0.08024908472439446 -8.123597929934983 -0.012379740426502797 -0.037192037425055044 44.603032574488985 0.007280161444789128 -0.030761442399919063 44.556852372212106 12.504631876460857 -0.034090464310634574 -0.009272807484285505 0.026606683127329327 -0.014700158186045812 -0.04192171171431108 -0.014060402784844417 -0.009883152656798693 -0.04280237310606799 11.136632683694017 -0.016623277337208846 -0.03697179531819837 0.006015789883107454 -0.03348063032209878 0.011506676923475574 0.04870603796155102 -0.016940901098734744 -0.02734192629119721 4.782531262417968 -0.04648312932820845 -0.04458565975312487 -0.0323634154639297 -0.0219691778908739 0.009923195261012286 -0.008571204593448569 0.00963663140052806 0.04620349300852658 -5.567855727132867 -0.008062897755985652 0.0052185142792451665 -6.693288415908471 0.013930881054992976 -0.048167228171398985 -6.6713061385229535 0.031105242455413493 0.012642104598293088 -0.02186350988710856 -0.012570769021145293 0.030188248631137945 8.07779658828338 3.4696974534722838 -19.243053340119786 0.0016447289567934475 10.387727324271472 0.03087014531846495 -5.668540277423396 -15.6731066710457 3.167340563213418 0.0111902843976857 0.02181546737134563 -0.014894350493813284 0.023757755460215833 4.714909050145971 -0.04186257981433012 12.509366842856474 -8.226202529733316 6.862710581327996 -0.0023270141979113215 46.333284324784366 -0.010758489262302577 -4.325619602188099 -14.797571241944542 -3.822565542746342 0.008332507468116916 -0.023494304750571102 -0.004747743793231402 -0.0043556450200888325 -10.746708660959657 0.014964906066772619 
0.0010206619001879467 -0.02627708418519144 -0.04668563319011418 0.02525439048267889 -0.009005225760296127 -0.0078016043460522825 -1.4347536545417914 1.2634567500208067 -0.9776900383743056 -0.45159845635267143 3.995757474634582 0.312636155210248 -0.8403489194447853 -1.9207242613145261 1.7498358315176883 -1.4006066232243362 -0.8265895137515671 -0.3489603555473515 -0.3310768081968296 15.314544477243933 1.2115223072872823 0.5463569636295964 -0.30187809706347746 1.4411687080973454 0.4032463341017719 -15.53741662970185 0.051175765236763315 -4.4786783747764165 1.7008805253963035 -13.728839601900775 70.2782502480955 0.3710988784795412 47.28935280963375 7.513208398443879 5.2260826896711015 112.42333096844041 18.603238091105833 -0.5398960328336103 -0.9965169205577848 4.494523810496778 -0.13789044185818639 -1.5729857690377782 0.00933826777756566 -0.04511643742411958 -56.19365294895522 0.025597629980911092 0.016062700369379877 -56.2449940553003 -38.73031599775041 -0.021341726291326135 0.007812425369391137 -0.012216884678225931 -0.008906142952897008 0.041061261472149786 0.040497279917610006 0.024676991312497953 -0.015582944161088639 -36.686283388093614 -0.014943249484837079 -0.026337098760434968 0.024522546161156695 0.04991193847389351 -0.02813751081375777 0.008896069398141419 0.024089357204103386 -0.011476634179798379 -19.741614426899563 0.03677624254983649 -0.013786494316156939 -0.00504575307148452 0.01549905204761178 -0.004608286561705274 0.0029822125533603646 0.016922032000359237 0.012495126266826315 24.05910154645602 -0.0042503851323076715 -0.021199211516381482 28.86219319259129 -0.030712554846378113 0.019659855608038047 28.900898065213486 0.043763487483381915 0.04409907859848741 5.898460401621262 1.4021897198057547 13.48639085915858 -70.23235973983343 18.377336443482257 -28.64468676960927 5.168240378019424 -5.092606220351319 -103.67269404052689 -17.43341224858859 8.782358536570573 -8.109517493848266 -0.4245556029933715 0.07655298777799137 -8.133961121429243 -0.01740912453106173 -0.0019668337074472716 44.60394503996487 0.026090466740494953 0.02835947649544942 44.59163422216643 12.425371704991626 -0.044729422339303666 0.03067564433398649 -0.016423218106062985 0.043009373300806036 0.030833939367856077 -0.010728949613771025 0.022797947003091727 -0.012069723672880296 11.121915395108495 0.04056170293198817 -0.03828692074711955 0.0019108659384492398 -0.02925602575133079 -0.036480750791449475 0.016823462119529016 -0.026320106577349917 -0.027885019293608843 4.776327425878585 0.03526138701650338 0.037066290557460926 -0.03496175459064356 0.035277450984748916 0.021544816758399393 0.04934186232518989 -0.004098148434544817 -0.013985154861520355 -5.617709175524067 0.022646072194665134 -0.008052616175513543 -6.710280308581437 -0.041606662326674745 0.031811369259947576 -6.725996539138594 -0.022325890289652952 -0.027905854617162495 0.016980564104765835 -0.007080066388351622 -0.024613784633982914 8.006590842742002 3.54381014252684 -19.188153415881715 0.019374215551361148 10.393752698368097 0.01025771554523204 -5.661535688563087 -15.663357775294603 3.18539290628735 0.021917611427247043 -0.041330239676604714 0.034686742746247425 0.03200381939830887 4.665193641174322 0.0152553376481473 12.481358376358093 -8.251599132037251 6.920545435240154 0.006949896062905079 46.34081906412851 0.014095945708597166 -4.349183981159108 -14.756192845918678 -3.788076277865688 0.013464851563410237 -0.03210905953524624 -0.011066347162895448 -0.0023209266506565287 -10.710098199488916 0.004065857186532827 
0.0463478476658942 0.012698306482376787 0.010632013305983241 0.017494545407584005 0.006252260432102035 -0.008511416416421938 -1.4445292285201472 1.1999816815394244 -0.9727278120264228 -0.4503220366849072 4.01358632944323 0.2900665345169891 -0.8099457803103923 -1.9976196576141256 1.6799761839943181 -1.3280572573291072 -0.7736211758408579 -0.3226249930781015 -0.3441601588206265 15.569790466224784 1.2336344501194279 0.6168422918163006 -0.4000248370393793 1.6068185422155246 0.4108510316892578 -15.722062265224725 0.04161970464630189 -4.546553129441072 1.65412979201132 -13.743355527952112 70.71281595068893 1.7911966558201913 47.51016991302734 6.212708955138282 4.715859037054517 113.73703976509789 18.254787687933604 -0.5132520661935073 -1.0093326128955615 4.536095255037417 -0.08788434067025513 -1.6332844220919265 -0.02917533579480005 0.01625753960792576 -56.22139180107147 0.002358912051230715 0.0016716632528190202 -56.27800734990759 -38.80937106435613 -0.032619817282828735 -0.04646573051421388 -0.002193138808750295 0.024992096858550476 0.01738166774847061 0.0404587141218829 0.007919457278402571 -0.0027485714920246797 -36.6605692925678 0.0012338775076132051 -0.0041252167546108305 -0.018780724587636168 -0.019791752016708592 0.010197280600798697 0.027312669230065513 -0.015846785808720794 0.030626763926574572 -19.761807894359748 -0.0021299737041510407 0.006393736775683839 0.04321143355521635 -0.002847280748471892 -0.0022676110336521623 -0.015105785550220744 -0.010509979426689202 -0.009114848879084841 24.07108540365595 -0.025437938672070025 0.0021822903772774046 28.82659412813458 0.02075227548326963 0.0437123235360731 28.903612742146052 -0.04663809883460814 -0.016460147281386204 6.220905175934669 1.48987493564573 13.472734007982625 -70.12981834586525 18.936594739402747 -30.31485326091361 6.446575124643594 -5.576896025228109 -105.73790409296546 -16.835000117360995 8.512672055577003 -7.852584918560046 -0.49075034106398685 0.061524407880681864 -8.114303999798832 0.004844550410008069 0.034138452181995314 44.55103069930597 -0.0063073261910355565 0.04144558159201738 44.575826388923566 12.440376434241394 -0.04021067301722396 0.03305994536530914 0.02967677892181883 -0.02038082601798843 0.038728755424550565 0.0406596293411024 -0.00701110660836885 -0.028496253304461826 11.097134424284764 0.026622096256692655 0.029766810850388997 -0.04316079419976618 0.005415104549016083 -0.021567534267275774 -0.00030231490771202006 0.03898298085857967 -0.037279043207825414 4.723872219677904 0.008460703925928587 -0.016096191203715964 -0.008313297138609899 0.0174802661490821 -0.014165137270423447 0.032826718738928194 0.0337374784697178 -0.039744275105988755 -5.625396791282988 -0.02828031177093423 -0.042878218668859235 -6.730675750456824 0.017824260707963474 0.010952686149215927 -6.732621224313132 0.008518237217297418 -0.030450165405197155 -0.029487981861340752 0.004244189887146551 -0.016096217226988365 8.064416135615764 3.4899921374791827 -19.25644159070648 -0.0115296747270932 10.425665311473365 -0.009533370058233001 -5.642429483241797 -15.645156602239389 3.1524871502541494 -0.02749000709151842 0.007024174404420329 -0.02841808162263623 0.0328364911337564 4.694639825742858 -0.04324322567397245 12.487694183347553 -8.227366280294342 6.855555265525053 -0.013649076160693082 46.37156686684153 0.00027522724845084503 -4.324563450176251 -14.709267072229089 -3.8259060480386973 -0.010860034404262543 -0.039228109079263024 0.018855889855481416 0.02016459134319354 -10.711899861361667 0.021157757218983834 
